<svg width="24" height="24" viewBox="0 0 24 24" fill="none" xmlns="http://www.w3.org/2000/svg">
<path d="M15.6 24V17.8987C15.6 16.9278 15.2207 15.9967 14.5456 15.3102C13.8705 14.6236 12.9548 14.238 12 14.238C11.0452 14.238 10.1295 14.6236 9.45442 15.3102C8.77928 15.9967 8.4 16.9278 8.4 17.8987V24H2.4C1.76348 24 1.15303 23.7429 0.702944 23.2852C0.252856 22.8275 1.11108e-10 22.2068 1.11107e-10 21.5595V8.29776C-3.98729e-06 7.87631 0.107317 7.46205 0.311512 7.09531C0.515706 6.72857 0.809816 6.42185 1.1652 6.20502L10.7652 0.347796C11.1382 0.120216 11.565 0 12 0C12.435 0 12.8618 0.120216 13.2348 0.347796L22.8348 6.20502C23.1902 6.42185 23.4843 6.72857 23.6885 7.09531C23.8927 7.46205 24 7.87631 24 8.29776V21.5595C24 22.2068 23.7471 22.8275 23.2971 23.2852C22.847 23.7429 22.2365 24 21.6 24H15.6Z" fill="black"/>
</svg>
