<svg width="24" height="24" viewBox="0 0 24 24" fill="none" xmlns="http://www.w3.org/2000/svg">
<path d="M24 12C24 14.3734 23.2962 16.6934 21.9776 18.6668C20.6591 20.6402 18.7849 22.1783 16.5922 23.0865C14.3995 23.9948 11.9867 24.2324 9.65892 23.7694C7.33115 23.3064 5.19295 22.1635 3.51472 20.4853C1.83649 18.807 0.693605 16.6689 0.230582 14.3411C-0.232441 12.0133 0.00519937 9.60051 0.913451 7.4078C1.8217 5.21508 3.35977 3.34094 5.33316 2.02236C7.30655 0.703787 9.62663 0 12 0C15.1826 0 18.2348 1.26428 20.4853 3.51472C22.7357 5.76515 24 8.8174 24 12ZM17.6925 10.875H13.125V6.3075C13.125 6.00913 13.0065 5.72298 12.7955 5.512C12.5845 5.30102 12.2984 5.1825 12 5.1825C11.7016 5.1825 11.4155 5.30102 11.2045 5.512C10.9935 5.72298 10.875 6.00913 10.875 6.3075V10.875H6.3075C6.00914 10.875 5.72299 10.9935 5.51201 11.2045C5.30103 11.4155 5.1825 11.7016 5.1825 12C5.1825 12.2984 5.30103 12.5845 5.51201 12.7955C5.72299 13.0065 6.00914 13.125 6.3075 13.125H10.875V17.6925C10.875 17.9909 10.9935 18.277 11.2045 18.488C11.4155 18.699 11.7016 18.8175 12 18.8175C12.2984 18.8175 12.5845 18.699 12.7955 18.488C13.0065 18.277 13.125 17.9909 13.125 17.6925V13.125H17.6925C17.9909 13.125 18.277 13.0065 18.488 12.7955C18.699 12.5845 18.8175 12.2984 18.8175 12C18.8175 11.7016 18.699 11.4155 18.488 11.2045C18.277 10.9935 17.9909 10.875 17.6925 10.875Z" fill="black"/>
</svg>
