<svg width="24" height="24" viewBox="0 0 24 24" fill="none" xmlns="http://www.w3.org/2000/svg">
<path d="M19.6667 0C20.8159 0 21.9181 0.456546 22.7308 1.2692C23.5435 2.08186 24 3.18406 24 4.33333V19.6667C24 20.8159 23.5435 21.9181 22.7308 22.7308C21.9181 23.5435 20.8159 24 19.6667 24H4.33333C3.18406 24 2.08186 23.5435 1.2692 22.7308C0.456546 21.9181 0 20.8159 0 19.6667V4.33333C0 3.18406 0.456546 2.08186 1.2692 1.2692C2.08186 0.456546 3.18406 0 4.33333 0H19.6667ZM10.6667 5.33333C9.84678 5.33368 9.03801 5.52304 8.3032 5.88671C7.56839 6.25039 6.92731 6.77858 6.42978 7.43025C5.93225 8.08192 5.59167 8.83953 5.43448 9.64421C5.2773 10.4489 5.30776 11.279 5.52348 12.07C5.73921 12.861 6.1344 13.5916 6.67834 14.205C7.22229 14.8185 7.90035 15.2983 8.65984 15.6071C9.41933 15.916 10.2398 16.0456 11.0575 15.9858C11.8752 15.9261 12.6681 15.6786 13.3747 15.2627L16.3907 18.276L16.516 18.3867C16.784 18.5939 17.1208 18.6913 17.458 18.6592C17.7953 18.6271 18.1076 18.4678 18.3317 18.2137C18.5557 17.9596 18.6746 17.6298 18.6643 17.2912C18.654 16.9526 18.5151 16.6306 18.276 16.3907L15.2627 13.3747C15.7401 12.5645 15.9949 11.6426 16.0012 10.7022C16.0075 9.76189 15.765 8.8366 15.2984 8.02018C14.8317 7.20376 14.1576 6.52522 13.3441 6.05336C12.5307 5.58151 11.607 5.3331 10.6667 5.33333ZM10.6667 8C11.3739 8 12.0522 8.28095 12.5523 8.78105C13.0524 9.28115 13.3333 9.95942 13.3333 10.6667C13.3333 11.3739 13.0524 12.0522 12.5523 12.5523C12.0522 13.0524 11.3739 13.3333 10.6667 13.3333C9.95942 13.3333 9.28115 13.0524 8.78105 12.5523C8.28095 12.0522 8 11.3739 8 10.6667C8 9.95942 8.28095 9.28115 8.78105 8.78105C9.28115 8.28095 9.95942 8 10.6667 8Z" fill="black"/>
</svg>
